<?xml version="1.0" encoding="UTF-8"?>
<!DOCTYPE svg  PUBLIC '-//W3C//DTD SVG 1.1//EN'  'http://www.w3.org/Graphics/SVG/1.1/DTD/svg11.dtd'>
<svg enable-background="new 0 0 284.929 284.929" version="1.1" viewBox="0 0 284.93 284.93" xml:space="preserve" xmlns="http://www.w3.org/2000/svg">
	<path d="m282.08 76.511-14.274-14.273c-1.902-1.906-4.093-2.856-6.57-2.856-2.471 0-4.661 0.95-6.563 2.856l-112.21 112.2-112.2-112.2c-1.903-1.906-4.093-2.856-6.567-2.856-2.475 0-4.665 0.95-6.567 2.856l-14.272 14.274c-1.906 1.902-2.856 4.092-2.856 6.567 0 2.473 0.953 4.663 2.856 6.565l133.04 133.05c1.902 1.903 4.093 2.854 6.567 2.854s4.661-0.951 6.562-2.854l133.05-133.05c1.902-1.903 2.847-4.093 2.847-6.565 0-2.475-0.945-4.665-2.847-6.571z" fill="#7e8190"/>
</svg>
